<?xml version="1.0" encoding="UTF-8" standalone="no"?>
<!-- Created with Inkscape (http://www.inkscape.org/) -->

<svg
   xmlns:dc="http://purl.org/dc/elements/1.1/"
   xmlns:cc="http://creativecommons.org/ns#"
   xmlns:rdf="http://www.w3.org/1999/02/22-rdf-syntax-ns#"
   xmlns:svg="http://www.w3.org/2000/svg"
   xmlns="http://www.w3.org/2000/svg"
   xmlns:xlink="http://www.w3.org/1999/xlink"
   xmlns:sodipodi="http://sodipodi.sourceforge.net/DTD/sodipodi-0.dtd"
   xmlns:inkscape="http://www.inkscape.org/namespaces/inkscape"
   width="32"
   height="32"
   id="svg3212"
   version="1.1"
   inkscape:version="0.48.4 r9939"
   sodipodi:docname="dynamics.svg">
  <defs
     id="defs3214" />
  <sodipodi:namedview
     id="base"
     pagecolor="#ffffff"
     bordercolor="#666666"
     borderopacity="1.0"
     inkscape:pageopacity="0.0"
     inkscape:pageshadow="2"
     inkscape:zoom="3.959798"
     inkscape:cx="-22.687452"
     inkscape:cy="-6.3310904"
     inkscape:document-units="px"
     inkscape:current-layer="layer1"
     showgrid="false"
     fit-margin-top="0"
     fit-margin-left="0"
     fit-margin-right="0"
     fit-margin-bottom="0"
     inkscape:window-width="836"
     inkscape:window-height="858"
     inkscape:window-x="695"
     inkscape:window-y="458"
     inkscape:window-maximized="0" />
  <metadata
     id="metadata3217">
    <rdf:RDF>
      <cc:Work
         rdf:about="">
        <dc:format>image/svg+xml</dc:format>
        <dc:type
           rdf:resource="http://purl.org/dc/dcmitype/StillImage" />
        <dc:title></dc:title>
      </cc:Work>
    </rdf:RDF>
  </metadata>
  <g
     inkscape:label="Layer 1"
     inkscape:groupmode="layer"
     id="layer1"
     transform="translate(-429.88729,-472.99604)">
    <polygon
       points="1.328,3.469 1.328,29.988 28.521,29.988 28.521,31.318 31.654,29.355 28.521,27.393 28.521,28.72 2.598,28.72 2.598,3.469 3.926,3.469 1.963,0.336 0,3.469 "
       id="polygon3151"
       transform="translate(430.06029,473.16904)" />
    <path
       sodipodi:type="arc"
       style="fill:#000000;fill-opacity:1;stroke:none"
       id="path3321"
       sodipodi:cx="4.7035227"
       sodipodi:cy="14.101359"
       sodipodi:rx="1.3258252"
       sodipodi:ry="1.3258252"
       d="m 6.0293479,14.101359 a 1.3258252,1.3258252 0 1 1 -2.6516504,0 1.3258252,1.3258252 0 1 1 2.6516504,0 z"
       transform="translate(430.20296,468.74538)" />
    <use
       x="0"
       y="0"
       xlink:href="#path3321"
       id="use4091"
       transform="matrix(1,0,0,-1,4.5961944,965.87777)"
       width="32"
       height="32" />
    <use
       x="0"
       y="0"
       xlink:href="#path3321"
       id="use4093"
       transform="matrix(1,0,0,-1,9.1923878,964.28456)"
       width="32"
       height="32" />
    <use
       x="0"
       y="0"
       xlink:href="#path3321"
       id="use4095"
       transform="matrix(1,0,0,-1,13.788582,966.69135)"
       width="32"
       height="32" />
    <use
       x="0"
       y="0"
       xlink:href="#path3321"
       id="use4097"
       transform="matrix(1,0,0,-1,18.384776,965.09814)"
       width="32"
       height="32" />
    <use
       x="0"
       y="0"
       xlink:href="#path3321"
       id="use4099"
       transform="matrix(1,0,0,-1,22.980968,965.50493)"
       width="32"
       height="32" />
    <path
       style="fill:none;stroke:#000000;stroke-width:1px;stroke-linecap:butt;stroke-linejoin:miter;stroke-opacity:1"
       d="m 434.87492,482.59267 4.67195,0.46225 4.54569,-1.58058 4.60882,2.46003 4.54569,-1.58059 4.73509,0.39912"
       id="path4101"
       inkscape:connector-curvature="0"
       sodipodi:nodetypes="cccccc" />
    <path
       transform="translate(430.20296,481.37041)"
       d="m 6.0293479,14.101359 a 1.3258252,1.3258252 0 1 1 -2.6516504,0 1.3258252,1.3258252 0 1 1 2.6516504,0 z"
       sodipodi:ry="1.3258252"
       sodipodi:rx="1.3258252"
       sodipodi:cy="14.101359"
       sodipodi:cx="4.7035227"
       id="path3123"
       style="fill:#000000;fill-opacity:1;stroke:none"
       sodipodi:type="arc" />
    <use
       height="32"
       width="32"
       transform="translate(4.5961944,12.218212)"
       id="use3125"
       xlink:href="#path3321"
       y="0"
       x="0" />
    <use
       height="32"
       width="32"
       transform="translate(9.1923878,13.811422)"
       id="use3127"
       xlink:href="#path3321"
       y="0"
       x="0" />
    <use
       height="32"
       width="32"
       transform="translate(13.788582,11.404631)"
       id="use3129"
       xlink:href="#path3321"
       y="0"
       x="0" />
    <use
       height="32"
       width="32"
       transform="translate(18.384776,12.997841)"
       id="use3131"
       xlink:href="#path3321"
       y="0"
       x="0" />
    <use
       height="32"
       width="32"
       transform="translate(22.980968,10.59105)"
       id="use3133"
       xlink:href="#path3321"
       y="0"
       x="0" />
    <path
       sodipodi:nodetypes="cccccc"
       inkscape:connector-curvature="0"
       id="path3135"
       d="m 434.87492,495.50334 4.67195,-0.46225 4.54569,1.58058 4.60882,-2.46003 4.54569,1.58059 4.73509,-2.39912"
       style="fill:none;stroke:#000000;stroke-width:1px;stroke-linecap:butt;stroke-linejoin:miter;stroke-opacity:1" />
  </g>
</svg>
