<?xml version="1.0" encoding="iso-8859-1"?>
<!-- Generator: Adobe Illustrator 16.0.0, SVG Export Plug-In . SVG Version: 6.00 Build 0)  -->
<!DOCTYPE svg PUBLIC "-//W3C//DTD SVG 1.1//EN" "http://www.w3.org/Graphics/SVG/1.1/DTD/svg11.dtd">
<svg version="1.1" id="Capa_1" xmlns="http://www.w3.org/2000/svg" xmlns:xlink="http://www.w3.org/1999/xlink" x="0px" y="0px"
	 width="31.654px" height="31.654px" viewBox="0 0 31.654 31.654" style="enable-background:new 0 0 31.654 31.654;"
	 xml:space="preserve">
<g>
	<g>
		<polygon points="31.654,29.355 28.521,27.393 28.521,28.72 2.598,28.72 2.598,3.469 3.926,3.469 1.963,0.336 0,3.469 1.328,3.469 
			1.328,29.988 28.521,29.988 28.521,31.318 		"/>
		<path d="M4.977,15.236c0.597,0,1.082-0.473,1.105-1.065l4.554-0.899c0.177,0.378,0.559,0.644,1.003,0.644
			c0.613,0,1.111-0.499,1.111-1.112c0-0.209-0.062-0.402-0.163-0.569L16.37,8.37c0.178,0.121,0.392,0.191,0.623,0.191
			c0.073,0,0.144-0.009,0.211-0.021l1.813,4.1c-0.265,0.202-0.438,0.52-0.438,0.878c0,0.614,0.497,1.111,1.11,1.111
			c0.383,0,0.719-0.193,0.918-0.487l4.605,1.863c-0.003,0.035-0.011,0.069-0.011,0.104c0,0.614,0.499,1.112,1.11,1.112
			c0.613,0,1.111-0.498,1.111-1.112c0-0.289-0.113-0.549-0.295-0.747L29.734,11c0.121,0.045,0.25,0.072,0.386,0.072
			c0.612,0,1.11-0.497,1.11-1.109c0-0.613-0.498-1.11-1.11-1.11s-1.111,0.497-1.111,1.11c0,0.245,0.082,0.47,0.216,0.653l-2.64,4.42
			c-0.087-0.024-0.177-0.039-0.271-0.039c-0.351,0-0.66,0.166-0.862,0.42L20.8,13.533c0,0,0.001-0.012,0.001-0.017
			c0-0.614-0.496-1.109-1.109-1.109c-0.026,0-0.051,0.005-0.076,0.007l-1.848-4.171c0.207-0.201,0.336-0.482,0.336-0.794
			c0-0.612-0.498-1.11-1.11-1.11c-0.613,0-1.11,0.498-1.11,1.11c0,0.149,0.03,0.293,0.083,0.424l-3.848,3.932
			c-0.146-0.068-0.307-0.113-0.48-0.113c-0.558,0-1.016,0.414-1.094,0.952l-4.62,0.913c-0.194-0.323-0.544-0.543-0.949-0.543
			c-0.613,0-1.111,0.498-1.111,1.111C3.866,14.74,4.364,15.236,4.977,15.236z"/>
		<path d="M29.012,24.398c0.612,0,1.11-0.498,1.11-1.11c0-0.614-0.498-1.111-1.11-1.111c-0.303,0-0.576,0.121-0.775,0.317
			l-2.213-1.502c0.06-0.137,0.093-0.284,0.093-0.441c0-0.613-0.498-1.109-1.11-1.109c-0.613,0-1.111,0.496-1.111,1.109
			c0,0.143,0.029,0.276,0.078,0.398l-2.974,2.471c-0.155-0.083-0.328-0.132-0.515-0.132c-0.217,0-0.418,0.063-0.588,0.171
			l-3.025-2.936c0.076-0.147,0.124-0.317,0.124-0.496c0-0.613-0.497-1.111-1.11-1.111c-0.613,0-1.111,0.498-1.111,1.111
			c0,0.082,0.011,0.164,0.029,0.242l-5.244,4.682c-0.168-0.102-0.364-0.163-0.576-0.163c-0.215,0-0.415,0.063-0.586,0.17
			l-2.545-2.995c0.146-0.188,0.236-0.421,0.236-0.678c0-0.613-0.498-1.11-1.111-1.11c-0.613,0-1.111,0.497-1.111,1.11
			s0.498,1.109,1.111,1.109c0.125,0,0.243-0.024,0.355-0.062l2.64,3.107c-0.062,0.14-0.101,0.293-0.101,0.457
			c0,0.612,0.498,1.109,1.11,1.109c0.614,0,1.11-0.497,1.11-1.109c0-0.17-0.041-0.33-0.11-0.476l5.14-4.591
			c0.2,0.188,0.466,0.306,0.761,0.306c0.201,0,0.388-0.059,0.55-0.151l3.043,2.953c-0.064,0.142-0.103,0.295-0.103,0.459
			c0,0.613,0.497,1.11,1.11,1.11s1.109-0.497,1.109-1.11c0-0.191-0.053-0.373-0.141-0.531l2.908-2.414
			c0.183,0.13,0.402,0.21,0.645,0.21c0.225,0,0.432-0.068,0.605-0.183l2.315,1.572c-0.016,0.076-0.024,0.153-0.024,0.235
			C27.9,23.9,28.398,24.398,29.012,24.398z"/>
	</g>
</g>
<g>
</g>
<g>
</g>
<g>
</g>
<g>
</g>
<g>
</g>
<g>
</g>
<g>
</g>
<g>
</g>
<g>
</g>
<g>
</g>
<g>
</g>
<g>
</g>
<g>
</g>
<g>
</g>
<g>
</g>
</svg>
