<?xml version="1.0" encoding="iso-8859-1"?>
<!-- Generator: Adobe Illustrator 18.1.1, SVG Export Plug-In . SVG Version: 6.00 Build 0)  -->
<svg version="1.1" id="Capa_1" xmlns="http://www.w3.org/2000/svg" xmlns:xlink="http://www.w3.org/1999/xlink" x="0px" y="0px"
	 viewBox="0 0 30.34 30.34" style="enable-background:new 0 0 30.34 30.34;" xml:space="preserve">
<g>
	<g>
		<path style="fill:#030104;" d="M28.753,11.819c3.066-4.383,0.748-7.76,0.748-7.76c-7.886-2.192-12.204,4.57-12.204,4.57
			c-0.941,0.183-1.501,0.123-1.501,0.123C11.785,6.309,8.344,7.25,8.344,7.25C7.093,6.185,5.403,6,5.403,6
			c-0.19,1.187,0.061,3.313,0.061,3.313c-1,0.754-2.815,3.259-2.815,3.259l-2.378,0.874c-0.941,0.438,0.874,0.563,0.874,0.563
			c-0.749,0.94,1.005-0.312,0.692,0.377c-0.314,0.687,0.499,0.312,0.499,0.312c0.562-0.749,0.562,0,0.562,0
			c1.314,2.94,4.133,4.257,4.133,4.257c2.379,7.01,3.254,6.259,3.254,6.259c1.318,0.69,0.691-0.187,0.691-0.187
			c-0.064-0.565,0.182-0.314,0.182-0.314c1.192,0.188,0.506-0.563,0.506-0.563c-0.879-0.062-0.506-0.498-0.506-0.498
			c0.88,0.249,2.258-1.253,2.258-1.253c0.061,1.314,0.061,3.815,0.061,3.815c0.126,0.44,1.314,0.504,1.314,0.504s0.627,0,1.314,0
			c0.69,0,0.066-0.688,0.066-0.688c0.312-0.125,0-0.502,0-0.502c-1.255,0-0.688-0.374-0.688-0.374
			c1.501-1.752,4.132-3.758,4.132-3.758c1.44-1.188,2.061,0.502,2.061,0.502c0.752,1.627,0.506,0,0.506,0
			c-0.192-1.253,0.436-0.44,0.436-0.44c1.75,1.127,0.438-0.437,0.438-0.437c-0.688-1.004,0.689-0.689,0.689-0.689
			c0.623-0.123,0.188-0.374,0.188-0.374l-1.251-0.312l-0.126-0.628C25.934,15.951,28.753,11.819,28.753,11.819z M7.716,7.687
			c0,0-0.121,0.44-1.499,0.627c0,0-0.126-0.191-0.126-1.313C6.09,7.001,7.531,7.251,7.716,7.687z M11.223,23.022
			c-0.248,0-1.628,1.004-2.191-0.687c-0.563-1.69-0.814-2.503-0.814-2.503s1.818,2.188,4.512,2.255
			C12.729,22.088,11.474,23.022,11.223,23.022z M14.603,24.779c0,0,0.187-1.816,0-2.631c0,0,1.253,0.251,2.879-0.188
			C17.482,21.96,15.607,23.148,14.603,24.779z M21.802,18.642c0,0-0.373,0.564-0.813-0.376l-1.752-3.064
			c0,0-0.688-0.628-0.253,0.187c0.439,0.814,0.94,1.753,0.94,1.753s0.879,1.69,0.818,2.567c0,0-1.505,0.688-6.45-1.253
			c0,0,2.064,1.627,3.629,2.005c0,0,1.627,0.249-0.125,0.624c0,0-6.699,1.751-9.327-2.005c0,0-0.752-0.499,0.189-0.687
			c0,0,1.566-0.562,1.752-1.503c0,0-2.94,1.816-4.572,0.314c0,0-3.441-2.756-2.878-4.193c0,0,3.569-7.324,13.082-3.507
			c0,0,0.82,0.31-1.813,1.127c0,0,3.567-0.376,4.381-0.251c0,0-2.314-0.251-0.061-2.191c0,0,3.38-4.882,10.011-3.878
			c0,0,1.066,2.877-2.438,1.187c0,0-0.562,0.253-0.127,0.504c0.44,0.249,3.194,1.75,3.194-1.067c0,0,1.379,3.944-1.566,7.388
			C27.623,12.321,22.554,18.078,21.802,18.642z"/>
		<path style="fill:#030104;" d="M28.688,8.253c-1.253-0.876-3.005,1.627-3.005,1.627l0.817,0.126l-0.064,2.189
			C29.066,12.26,28.688,8.253,28.688,8.253z M28.249,8.753c0,0,0.191,2.567-1.253,2.567l-0.122-1.879
			C26.874,9.441,27.562,8.253,28.249,8.753z"/>
		<path style="fill:#030104;" d="M21.675,6.749c-0.342,0-0.621,0.282-0.621,0.628C21.054,7.721,21.333,8,21.675,8
			c0.35,0,0.627-0.279,0.627-0.623C22.303,7.031,22.025,6.749,21.675,6.749z"/>
	</g>
</g>
<g>
</g>
<g>
</g>
<g>
</g>
<g>
</g>
<g>
</g>
<g>
</g>
<g>
</g>
<g>
</g>
<g>
</g>
<g>
</g>
<g>
</g>
<g>
</g>
<g>
</g>
<g>
</g>
<g>
</g>
</svg>
