<?xml version="1.0" encoding="iso-8859-1"?>
<!-- Generator: Adobe Illustrator 16.0.0, SVG Export Plug-In . SVG Version: 6.00 Build 0)  -->
<!DOCTYPE svg PUBLIC "-//W3C//DTD SVG 1.1//EN" "http://www.w3.org/Graphics/SVG/1.1/DTD/svg11.dtd">
<svg version="1.1" id="Capa_1" xmlns="http://www.w3.org/2000/svg" xmlns:xlink="http://www.w3.org/1999/xlink" x="0px" y="0px"
	 width="585.024px" height="585.023px" viewBox="0 0 585.024 585.023" style="enable-background:new 0 0 585.024 585.023;"
	 xml:space="preserve">
<g>
	<g>
		<path d="M584.129,437.893c-2.873-13.9-5.786-27.801-8.968-41.632c-2.004-8.719-3.966-17.516-6.899-25.945
			c-7.442-21.391-19.241-40.184-35.19-56.361c-3.142-3.187-4.781-7.083-2.945-11.718c0.686-1.726,1.252-3.509,1.771-5.291
			c3.317-11.461,1.95-22.313-5.725-31.555c-7.348-8.85-17.299-11.771-28.453-9.107c-10.829,2.587-17.096,9.984-19.499,20.678
			c-0.697,3.113-0.812,6.356-1.195,9.552c-4.749,0.021-12.325-2.379-17.503-6.03c-4.08-2.881-7.891-6.148-11.815-9.254
			c-3.031-2.398-5.863-5.124-9.119-7.164c-10.285-6.426-21.457-10.723-33.284-13.448c-13.501-3.112-27.178-3.827-40.919-3.146
			c-12.75,0.633-25.382,2.469-37.858,5.202c-40.612,8.902-78.495,23.741-109.968,51.886c-6.345,5.671-11.959,12.293-17.202,19.028
			c-9.294,11.938-16.087,25.354-21.697,39.397c-4.468,11.183-7.312,22.595-6.218,34.753c0.098,1.09-0.114,2.252-0.396,3.325
			l0.62,1.126c-2.66,8.164-6.932,15.174-14.529,19.895c-6.507,4.043-13.533,6.593-20.975,8.311
			c-10.845,2.505-21.812,3.603-32.812,2.102c-23.852-3.256-43.542-14.063-58.601-33.13c-7.613-9.641-12.913-20.396-16.483-32.036
			c-2.979-9.723-4.019-19.719-3.864-29.91c0.326-21.355,5.646-41.58,13.036-61.438c4.871-13.092,11.065-25.459,18.772-37.091
			c10.853-16.386,21.983-32.555,35.578-46.863c11.383-11.979,24.231-22.269,37.198-32.428c11.081-8.682,22.24-17.271,33.174-26.136
			c10.784-8.744,21.384-17.72,31.927-26.757c1.995-1.71,3.827-3.962,4.888-6.337c1.636-3.672-0.551-6.263-4.521-5.695
			c-1.914,0.273-3.917,0.828-5.578,1.783c-5.128,2.949-10.318,5.867-15.107,9.314c-20.314,14.618-40.601,29.282-60.674,44.223
			c-10.89,8.104-21.673,16.414-31.873,25.354c-7.315,6.41-13.978,13.681-20.229,21.155c-7.785,9.314-15.3,18.923-22.114,28.959
			c-13.644,20.099-24.692,41.543-31.767,64.93c-5.937,19.625-8.299,39.629-6.544,60.009c1.167,13.513,3.411,26.952,8.335,39.682
			c3.325,8.597,7.923,16.524,14.1,23.579c14.158,16.173,31.216,28.095,51.09,36.092c2.811,1.13,5.675,2.129,8.515,3.19
			c4.978,1.134,9.955,2.269,14.937,3.402c5.234,0.375,10.461,0.959,15.7,1.094c14.284,0.363,27.98-2.371,41.017-8.295
			c5.545-2.521,11.036-5.178,16.65-7.536c6.512-2.741,13.174-4.684,20.151-4.202l0.987,1.791c0.596,0.118,1.171,0.522,1.673,0.902
			c13.219,10.045,28.185,15.275,44.692,16.319c0.849,0.054,1.815,0.213,2.488,0.669c6.218,4.264,13.235,6.704,20.245,9.233
			c10.032,3.615,20.4,4.027,30.882,3.737c10.881-0.302,20.555,2.57,28.629,10.314c1.869,1.791,4.676,2.709,7.182,3.696
			c2.142,0.849,4.349,1.399,5.21,3.872c0.273,0.783,0.485,1.587,0.755,2.484c2.893-2.562,3.398-5.3,0.926-7.988
			c-4.125-4.488-7.956-9.355-13.387-12.469c-0.514-0.294-0.995-0.652-1.493-0.979c0.049-0.302,0.094-0.6,0.143-0.901
			c4.554,0.163,9.115,0.266,13.668,0.502c5.121,0.27,9.246,2.518,12.641,6.36c1.758,1.991,3.741,3.815,5.81,5.484
			c3.048,2.456,6.446,3.17,10.225,1.542c0.771-0.335,1.881-0.2,2.746,0.041c2.745,0.774,3.655,3.108,4.182,5.695
			c2.529-1.999,3.301-4.031,1.844-6.39c-1.093-1.771-2.904-3.108-4.455-4.577c-0.624-0.592-1.546-0.894-2.093-1.534
			c-2.244-2.619-4.395-5.316-6.581-7.989c2.081,1.44,3.9,3.175,5.594,5.019c1.656,1.812,3.26,3.627,5.912,3.905
			c4.308,0.448,8.262,1.383,8.792,6.85c2.692-2.289,3.08-4.247,1.763-7.042c-1.159-2.452-3.15-3.811-5.602-4.68
			c-0.576-0.204-1.294-0.371-1.637-0.804c-2.811-3.517-5.549-7.095-8.185-10.494c0.311,0.005,1.11,0.037,1.91,0.017
			c9.592-0.236,19.221-0.062,28.768-0.841c10.771-0.877,21.473-2.635,32.212-3.94c0.592-0.074,1.566,0.354,1.853,0.849
			c2.884,4.944,7.005,8.054,12.615,9.444c8.396,2.081,16.255,4.974,20.657,13.46c1.566,3.016,4.512,3.089,6.552,0.751
			c-0.763-0.42-1.489-0.824-2.138-1.183c2.836-5.19-1.163-8.854-2.803-13.016c3.831-0.339,7.964,1.999,9.6,5.169
			c0.959,1.861,2.073,3.648,3.171,5.431c0.783,1.277,1.836,1.783,3.219,0.8c1.081-0.771,2.158-1.542,3.239-2.317
			c-0.167-1.33,0.049-2.885-0.575-3.949c-1.48-2.538-3.357-4.848-5.075-7.246c0.167-0.172,0.334-0.343,0.502-0.51
			c1.905,1.787,3.766,3.618,5.732,5.336c1.122,0.983,2.387,1.82,3.644,2.64c0.685,0.449,1.795,0.526,2.166,1.114
			c0.804,1.285,1.257,2.791,1.934,4.395c1.702-0.511,2.559-1.95,2.139-3.893c-0.404-1.864-1.062-3.717-1.873-5.447
			c-1.963-4.182-5.635-6.735-9.474-9.212c3.382-1.474,4.137-1.082,5.871,2.859c2.619-2.252,1.236-6.438-2.396-7.927
			c-3.23-1.322-6.319-2.995-9.469-4.517c0.012-0.27,0.028-0.535,0.04-0.804c8.76-0.53,17.516-1.29,26.288-1.514
			c6.544-0.168,12.848,1.722,18.678,4.562c8.426,4.108,16.532,8.927,25.603,11.538c8.311,2.395,16.173,1.812,22.823-4.529
			c0.51-0.485,1.057-0.926,1.53-1.338c4.332,2.117,7.923,1.562,10.689-2.146c1.383-1.853,2.513-4.288,2.696-6.548
			C585.21,444.327,584.778,441.026,584.129,437.893z"/>
	</g>
</g>
<g>
</g>
<g>
</g>
<g>
</g>
<g>
</g>
<g>
</g>
<g>
</g>
<g>
</g>
<g>
</g>
<g>
</g>
<g>
</g>
<g>
</g>
<g>
</g>
<g>
</g>
<g>
</g>
<g>
</g>
</svg>
