<?xml version="1.0" encoding="iso-8859-1"?>
<!-- Generator: Adobe Illustrator 18.0.0, SVG Export Plug-In . SVG Version: 6.00 Build 0)  -->
<!DOCTYPE svg PUBLIC "-//W3C//DTD SVG 1.1//EN" "http://www.w3.org/Graphics/SVG/1.1/DTD/svg11.dtd">
<svg version="1.1" id="Capa_1" xmlns="http://www.w3.org/2000/svg" xmlns:xlink="http://www.w3.org/1999/xlink" x="0px" y="0px"
	 viewBox="0 0 431.604 431.604" style="enable-background:new 0 0 431.604 431.604;" xml:space="preserve">
<g>
	<path d="M389.481,233.423H327.04c5.93-11.57,8.867-25.613,8.867-42.268c0-77.316-63.773-140.218-142.162-140.218
		c-36.268,0-70.191,13.172-96.496,37.26c-8.119-5.291-17.798-8.379-28.19-8.379c-28.555,0-51.786,23.231-51.786,51.787
		c0,11.137,3.591,21.861,10.079,30.676C10.488,178.752,0,201.725,0,227.105c0,15.821,4.049,27.522,12.379,35.773
		c14.779,14.638,38.832,14.409,66.684,14.141c7.569-0.072,54.375-0.244,63.189-1.774c16.319,1.478,34.363,1.697,51.493,1.697
		c36.471,0,71.354-0.895,97.295-11.694c7.648-3.184,14.296-7.12,19.966-11.824h78.475c12.198,0,22.123,9.925,22.123,22.124
		c0,12.199-9.925,22.124-22.123,22.124H140.494c-22.632,0-41.247,18.411-41.496,41.042c-0.123,11.17,4.136,21.696,11.992,29.639
		c7.855,7.942,18.333,12.316,29.504,12.316h146.671c5.522,0,10-4.477,10-10s-4.478-10-10-10H140.494
		c-5.787,0-11.215-2.266-15.285-6.38c-4.07-4.115-6.276-9.567-6.212-15.354c0.129-11.724,9.772-21.262,21.497-21.262h248.988
		c23.227,0,42.123-18.896,42.123-42.124S412.708,233.423,389.481,233.423z M37.273,131.605c0-17.527,14.259-31.787,31.786-31.787
		c17.527,0,31.787,14.259,31.787,31.787c0,1.816-0.159,3.605-0.457,5.364c-3.22-0.345-6.468-0.518-9.735-0.518
		c-17.42,0-33.704,4.943-47.534,13.494C39.356,144.628,37.273,138.237,37.273,131.605z M102.436,257.02
		c-3.847-0.037-7.781-0.074-11.782-0.074s-7.935,0.038-11.782,0.074c-23.377,0.225-43.565,0.417-52.419-8.352
		C22.111,244.367,20,237.314,20,227.105c0-38.958,31.695-70.654,70.654-70.654c8.497,0,16.819,1.5,24.735,4.46
		c3.155,1.179,6.693,0.691,9.411-1.299c2.718-1.991,4.25-5.216,4.078-8.581c-0.028-0.551-0.043-1.106-0.043-1.665
		c0-17.526,14.258-31.784,31.784-31.784s31.785,14.258,31.785,31.784c0,16.922-13.223,30.864-30.102,31.74
		c-3.369,0.175-6.423,2.037-8.122,4.951c-1.698,2.915-1.813,6.49-0.304,9.507c4.932,9.864,7.433,20.476,7.433,31.54
		c0,10.209-2.111,17.262-6.453,21.563C146.001,257.437,125.807,257.242,102.436,257.02z M283.353,246.784
		c-22.532,9.381-55.243,10.158-89.607,10.158c-6.547,0-13.224-0.037-19.863-0.16c4.978-7.626,7.425-17.407,7.425-29.677
		c0-9.818-1.536-19.361-4.578-28.503c20.805-6.784,35.673-26.335,35.673-49.235c0-28.554-23.23-51.784-51.785-51.784
		c-16.956,0-32.03,8.194-41.482,20.828c-1.554-5.894-4.128-11.376-7.514-16.255c22.487-20.193,51.317-31.217,82.123-31.217
		c67.36,0,122.162,53.93,122.162,120.218C315.907,220.254,305.867,237.41,283.353,246.784z"/>
	<circle cx="105.995" cy="202.676" r="13.499"/>
</g>
<g>
</g>
<g>
</g>
<g>
</g>
<g>
</g>
<g>
</g>
<g>
</g>
<g>
</g>
<g>
</g>
<g>
</g>
<g>
</g>
<g>
</g>
<g>
</g>
<g>
</g>
<g>
</g>
<g>
</g>
</svg>
