<?xml version="1.0" encoding="iso-8859-1"?>
<!-- Generator: Adobe Illustrator 19.0.0, SVG Export Plug-In . SVG Version: 6.00 Build 0)  -->
<svg version="1.1" id="Capa_1" xmlns="http://www.w3.org/2000/svg" xmlns:xlink="http://www.w3.org/1999/xlink" x="0px" y="0px"
	 viewBox="0 0 439.376 439.376" style="enable-background:new 0 0 439.376 439.376;" xml:space="preserve">
<path id="XMLID_195_" d="M404.767,261.139v-74.563c0-51.009-41.5-92.508-92.509-92.508h-67.479
	c0.281-3.339,0.105-6.741-0.543-10.129c-1.802-9.412-7.037-17.579-14.778-23.086c-6.138-5.778-14.414-8.485-23.404-7.631
	c-11.168,1.06-22.066,7.556-28.443,16.953l-11.02,16.241l-13.83-20.38c-11.406-16.807-34.356-21.201-51.166-9.796
	c-8.115,5.507-13.606,13.875-15.46,23.561c-1.854,9.686,0.158,19.488,5.665,27.602l20.178,29.738
	c-3.34,5.218-6.165,10.779-8.394,16.602c-3.071,5.748-5.874,11.873-8.587,17.802l-6.241,13.637l-58.731-41.61l-10.405,14.688
	l61.513,43.581l-7.942,17.354l-73.188-0.004l-0.001,18l64.952,0.004l-0.211,0.461c-13.738,2.347-24.228,14.339-24.228,28.736
	c0,16.074,13.078,29.151,29.152,29.151c11.526,0,21.512-6.725,26.24-16.456h83.591l38.93,27.582l10.406-14.688l-18.2-12.895h192.146
	c10.255,0,18.598,8.344,18.598,18.6c0,10.255-8.343,18.598-18.598,18.598H298.264c-20.18,0-36.598,16.418-36.598,36.599
	s16.417,36.599,36.598,36.599h58.18v-18h-58.18c-10.255,0-18.598-8.344-18.598-18.6c0-10.255,8.343-18.598,18.598-18.598h104.515
	c20.18,0,36.598-16.418,36.598-36.599C439.376,278.17,424.027,262.174,404.767,261.139z M69.666,277.541
	c-6.149,0-11.152-5.002-11.152-11.151c0-6.149,5.003-11.152,11.152-11.152s11.152,5.003,11.152,11.152
	C80.817,272.539,75.815,277.541,69.666,277.541z M106.693,97.294c-2.807-4.136-3.83-9.147-2.879-14.11s3.752-9.244,7.89-12.051
	c3.13-2.124,6.76-3.227,10.49-3.227c1.202,0,2.414,0.115,3.622,0.346c4.963,0.95,9.242,3.752,12.05,7.89l16.928,24.946
	c-11.713,4.883-22.309,12.193-31.101,21.261L106.693,97.294z M386.767,261.086h-201.54l-42.406-30.044l105.631,0.008l0.001-18
	l-129.798-0.01l-6.003,18.687l41.439,29.359H98.334c-1.646-8.913-7.358-16.418-15.134-20.511l28.165-61.541
	c2.8-6.119,5.445-11.899,8.348-17.282l0.292-0.54l0.215-0.574c7.771-20.734,24.902-37.399,45.828-44.579l2.84-0.975l23.616-34.803
	c3.39-4.995,9.375-8.583,15.249-9.14c2.731-0.259,6.615,0.059,9.604,3.048l0.604,0.604l0.707,0.479
	c4.137,2.808,6.939,7.087,7.889,12.051c0.95,4.963-0.073,9.975-2.88,14.111l-22.468,33.109l14.895,10.107l22.112-32.584h74.042
	c41.084,0,74.509,33.424,74.509,74.508V261.086z M151.593,146.855h21.763v18h-21.763V146.855z"/>
<g>
</g>
<g>
</g>
<g>
</g>
<g>
</g>
<g>
</g>
<g>
</g>
<g>
</g>
<g>
</g>
<g>
</g>
<g>
</g>
<g>
</g>
<g>
</g>
<g>
</g>
<g>
</g>
<g>
</g>
</svg>
