<?xml version="1.0" encoding="iso-8859-1"?>
<!-- Generator: Adobe Illustrator 19.1.0, SVG Export Plug-In . SVG Version: 6.00 Build 0)  -->
<svg version="1.1" id="Capa_1" xmlns="http://www.w3.org/2000/svg" xmlns:xlink="http://www.w3.org/1999/xlink" x="0px" y="0px"
	 viewBox="0 0 126.9 126.9" style="enable-background:new 0 0 126.9 126.9;" xml:space="preserve">
<g>
	<path d="M63.525,120.101c-15.977,0-43.5-30.033-43.5-60.778c0-26.627,17.075-43.833,43.5-43.833c0.828,0,1.5,0.671,1.5,1.5
		s-0.672,1.5-1.5,1.5c-24.981,0-40.5,15.646-40.5,40.833c0,13.243,5.488,27.855,15.057,40.09
		c8.274,10.58,18.499,17.688,25.443,17.688c0.828,0,1.5,0.671,1.5,1.5S64.353,120.101,63.525,120.101z"/>
	<path d="M38.525,70.656c-3.446,0-6.25-2.804-6.25-6.25s2.804-6.25,6.25-6.25s6.25,2.804,6.25,6.25S41.972,70.656,38.525,70.656z
		 M38.525,61.156c-1.792,0-3.25,1.458-3.25,3.25s1.458,3.25,3.25,3.25s3.25-1.458,3.25-3.25S40.317,61.156,38.525,61.156z"/>
	<path d="M26.256,35.54c-0.33,0-0.678-0.022-1.041-0.067c-1.972-0.24-4.487-1.129-7.479-2.643
		c-4.681-2.369-10.099-6.11-12.883-8.895c-1.896-1.895-2.941-4.416-2.941-7.098c-0.001-2.682,1.043-5.202,2.939-7.098
		c1.896-1.896,4.418-2.94,7.101-2.94c2.682,0,5.203,1.044,7.099,2.94l0,0l0,0c4.366,4.367,15.024,20.06,10.443,24.642
		C28.725,35.152,27.638,35.54,26.256,35.54z M11.952,9.799c-1.881,0-3.649,0.732-4.979,2.062c-1.329,1.329-2.061,3.096-2.061,4.977
		c0,1.88,0.732,3.647,2.062,4.977c2.165,2.167,7.147,5.825,12.117,8.34c2.641,1.337,4.884,2.146,6.486,2.342
		c0.871,0.104,1.541,0.018,1.794-0.235c2.003-2.003-5.132-15.089-10.442-20.4l0,0C15.601,10.531,13.833,9.799,11.952,9.799z"/>
	<path d="M43.754,21.218c-15.772,0-26.272-8.876-26.742-9.281c-0.628-0.541-0.698-1.486-0.158-2.114
		c0.538-0.627,1.486-0.699,2.114-0.161c0.114,0.098,11.656,9.805,28.097,8.416c0.816-0.065,1.551,0.542,1.622,1.368
		c0.069,0.825-0.543,1.551-1.368,1.621C46.103,21.17,44.913,21.218,43.754,21.218z"/>
	<path d="M55.752,111.073c-0.077,0-0.155-0.006-0.234-0.018l-54.25-8.5c-0.818-0.128-1.378-0.896-1.249-1.714
		c0.128-0.818,0.893-1.379,1.714-1.25l54.25,8.5c0.818,0.128,1.378,0.896,1.249,1.714C57.116,110.545,56.477,111.073,55.752,111.073
		z"/>
	<path d="M3.859,118.351c-0.744,0-1.39-0.553-1.486-1.31c-0.104-0.822,0.477-1.573,1.298-1.678l50.914-6.5
		c0.821-0.103,1.574,0.476,1.679,1.298s-0.477,1.573-1.298,1.678l-50.914,6.5C3.987,118.347,3.923,118.351,3.859,118.351z"/>
	<path d="M71.148,111.073c-0.726,0-1.364-0.528-1.479-1.268c-0.129-0.819,0.431-1.586,1.249-1.714l54.25-8.5
		c0.824-0.128,1.587,0.431,1.714,1.25c0.129,0.819-0.431,1.586-1.249,1.714l-54.25,8.5
		C71.304,111.067,71.226,111.073,71.148,111.073z"/>
	<path d="M123.039,118.351c-0.063,0-0.127-0.004-0.192-0.012l-50.912-6.5c-0.821-0.105-1.402-0.856-1.298-1.678
		c0.104-0.822,0.841-1.407,1.679-1.298l50.912,6.5c0.821,0.105,1.402,0.856,1.298,1.678
		C124.429,117.798,123.783,118.351,123.039,118.351z"/>
	<path d="M63.748,120.101c-0.828,0-1.5-0.671-1.5-1.5s0.672-1.5,1.5-1.5c14.518,0,40.5-29.123,40.5-57.778
		c0-25.187-15.519-40.833-40.5-40.833c-0.828,0-1.5-0.671-1.5-1.5s0.672-1.5,1.5-1.5c26.425,0,43.5,17.206,43.5,43.833
		c0,13.9-5.72,29.186-15.693,41.938C82.603,112.706,71.688,120.101,63.748,120.101z"/>
	<path d="M88.75,70.656c-3.446,0-6.25-2.804-6.25-6.25s2.804-6.25,6.25-6.25S95,60.959,95,64.406S92.196,70.656,88.75,70.656z
		 M88.75,61.156c-1.792,0-3.25,1.458-3.25,3.25s1.458,3.25,3.25,3.25S92,66.198,92,64.406S90.542,61.156,88.75,61.156z"/>
	<path d="M101.02,35.54c-1.382,0-2.469-0.388-3.24-1.158c-4.581-4.583,6.077-20.276,10.444-24.643l0,0l0,0
		c1.896-1.896,4.416-2.94,7.098-2.94s5.203,1.044,7.1,2.94c1.896,1.896,2.939,4.417,2.939,7.099s-1.044,5.203-2.939,7.098
		c-2.784,2.785-8.202,6.526-12.883,8.895c-2.991,1.514-5.507,2.403-7.479,2.643C101.697,35.518,101.351,35.54,101.02,35.54z
		 M115.322,9.799c-1.88,0-3.647,0.732-4.977,2.062l0,0C105.035,17.172,97.899,30.258,99.9,32.26c0.254,0.253,0.926,0.34,1.797,0.236
		c1.603-0.195,3.846-1.005,6.486-2.342c4.97-2.515,9.952-6.173,12.117-8.339c2.744-2.745,2.744-7.209,0-9.954
		C118.971,10.531,117.203,9.799,115.322,9.799z"/>
	<path d="M83.519,21.218c-1.16,0-2.349-0.048-3.564-0.151c-0.825-0.07-1.438-0.796-1.368-1.621c0.069-0.827,0.799-1.441,1.622-1.368
		c16.439,1.391,27.984-8.318,28.099-8.416c0.63-0.539,1.576-0.466,2.114,0.161c0.54,0.628,0.47,1.573-0.158,2.113
		C109.794,12.342,99.291,21.218,83.519,21.218z"/>
	<path d="M63.762,119.835h-0.219c-0.126,0-0.251-0.016-0.373-0.047c-5.315-1.365-8.605-7.159-8.605-11.745
		c0-5.935,5.497-6.065,8.951-6.068c0.033,0.001,0.08,0,0.121,0c0.041,0,0.09,0.003,0.121,0c3.454,0.003,8.951,0.133,8.951,6.068
		c0,4.589-3.278,10.384-8.574,11.744C64.013,119.82,63.888,119.835,63.762,119.835z M63.637,104.976
		c-5.151,0.011-6.072,0.819-6.072,3.068c0,3.4,2.435,7.66,6.088,8.765c3.635-1.102,6.057-5.362,6.057-8.765
		C69.709,105.795,68.788,104.987,63.637,104.976z"/>
</g>
<g>
</g>
<g>
</g>
<g>
</g>
<g>
</g>
<g>
</g>
<g>
</g>
<g>
</g>
<g>
</g>
<g>
</g>
<g>
</g>
<g>
</g>
<g>
</g>
<g>
</g>
<g>
</g>
<g>
</g>
</svg>
