<?xml version="1.0" encoding="iso-8859-1"?>
<!-- Generator: Adobe Illustrator 18.0.0, SVG Export Plug-In . SVG Version: 6.00 Build 0)  -->
<!DOCTYPE svg PUBLIC "-//W3C//DTD SVG 1.1//EN" "http://www.w3.org/Graphics/SVG/1.1/DTD/svg11.dtd">
<svg version="1.1" id="Capa_1" xmlns="http://www.w3.org/2000/svg" xmlns:xlink="http://www.w3.org/1999/xlink" x="0px" y="0px"
	 viewBox="0 0 493.008 493.008" style="enable-background:new 0 0 493.008 493.008;" xml:space="preserve">
<path d="M486.374,214.288l-50.79-41.124c-1.273-1.038-2.726-1.733-4.148-2.509c1.027-2.711,1.667-5.624,1.667-8.696
	c0-13.604-11.024-24.636-24.628-24.636c-13.623,0-24.648,11.032-24.648,24.636c0,3.642,0.837,7.073,2.255,10.182h-65.078
	c-19.338-13.31-43.72-21.317-70.292-21.317c-56.701,0-103.575,36.245-112.082,83.567c-25.589,3.797-49.221,27.364-49.221,58.953
	c0,12.701-9.775,27.392-19.831,32.551c-6.77,3.473-8.685,3.496-62.939,6.101c-3.542,0.176-6.465,3.02-6.632,6.629
	c-0.177,3.844,2.777,7.122,6.632,7.298c48.545,2.331,57.816,3.137,67.695,0.173c18.196-5.459,36.707-22.862,40.502-51.957
	c0.184-1.411,1.253-8.733,4.465-14.331c6.882-11.993,18.188-13.303,19.508-13.646c6.173,32.181,30.118,59.027,62.795,72.723
	c0,0.026-0.015,0.048-0.015,0.074c0,9.237,7.479,16.723,16.723,16.723h127.517c9.24,0,16.723-7.486,16.723-16.723
	c0-9.237-7.482-16.723-16.723-16.723h-16.382l82.88-67.073l65.245-9.163c7.074-0.997,12.886-6.092,14.78-12.975
	C494.264,226.144,491.911,218.787,486.374,214.288z"/>
<g>
</g>
<g>
</g>
<g>
</g>
<g>
</g>
<g>
</g>
<g>
</g>
<g>
</g>
<g>
</g>
<g>
</g>
<g>
</g>
<g>
</g>
<g>
</g>
<g>
</g>
<g>
</g>
<g>
</g>
</svg>
